<?xml version="1.0" standalone="no"?>
<svg viewBox="0 0 200 200" xmlns="http://www.w3.org/2000/svg">
  <path fill="#000000" d="M35.9,-52.6C50.8,-46.4,70,-43.5,80.2,-33.1C90.5,-22.7,91.8,-4.6,85.2,9.3C78.6,23.3,64.1,33.1,51,39.1C37.9,45.1,26.2,47.2,14.5,51.8C2.8,56.4,-9,63.4,-22.3,64.6C-35.5,65.8,-50.4,61.2,-55.9,50.7C-61.4,40.3,-57.6,24,-60.5,8.2C-63.5,-7.5,-73.3,-22.7,-70.8,-34C-68.3,-45.3,-53.5,-52.7,-39.6,-59.5C-25.8,-66.2,-12.9,-72.2,-1.2,-70.4C10.5,-68.5,21.1,-58.9,35.9,-52.6Z" transform="translate(100 100)" />
</svg>
